<?xml version="1.0" encoding="UTF-8"?>
<!DOCTYPE svg PUBLIC "-//W3C//DTD SVG 1.1//EN" "http://www.w3.org/Graphics/SVG/1.1/DTD/svg11.dtd">
<!-- Creator: CorelDRAW -->
<svg xmlns="http://www.w3.org/2000/svg" xml:space="preserve" width="10.8447mm" height="10.0086mm" version="1.1" style="shape-rendering:geometricPrecision; text-rendering:geometricPrecision; image-rendering:optimizeQuality; fill-rule:evenodd; clip-rule:evenodd"
viewBox="0 0 6.8 6.27"
 xmlns:xlink="http://www.w3.org/1999/xlink"
 xmlns:xodm="http://www.corel.com/coreldraw/odm/2003">
 <defs>
  <style type="text/css">
   <![CDATA[
    .fil0 {fill:#FEFEFE}
   ]]>
  </style>
 </defs>
 <g id="Camada_x0020_1">
  <metadata id="CorelCorpID_0Corel-Layer"/>
  <g id="_3170677849056">
   <path class="fil0" d="M1.57 5.72c0,0.17 0.03,0.28 0.14,0.4 0.07,0.07 0.2,0.16 0.33,0.16l4.28 0c0.12,0 0.26,-0.09 0.32,-0.15 0.33,-0.33 0.08,-0.89 -0.34,-0.89l-4.25 0c-0.25,0 -0.49,0.24 -0.49,0.49z"/>
   <path class="fil0" d="M1.57 3.1c0,0.34 0.24,0.56 0.47,0.56l4.28 0c0.23,0 0.47,-0.25 0.47,-0.47 0,-0.17 -0.02,-0.29 -0.15,-0.42 -0.07,-0.07 -0.2,-0.15 -0.34,-0.15l-4.25 0c-0.25,0 -0.49,0.24 -0.49,0.49z"/>
   <path class="fil0" d="M1.57 0.49c0,0.34 0.24,0.56 0.47,0.56l4.28 0c0.12,0 0.26,-0.09 0.32,-0.15 0.2,-0.2 0.2,-0.54 0,-0.74 -0.07,-0.07 -0.2,-0.15 -0.34,-0.15l-4.25 0c-0.25,0 -0.49,0.24 -0.49,0.49z"/>
   <path class="fil0" d="M-0 0.49c0,0.34 0.24,0.56 0.47,0.56 0.17,0 0.29,-0.02 0.42,-0.15 0.2,-0.2 0.2,-0.54 0,-0.74 -0.32,-0.32 -0.89,-0.09 -0.89,0.34z"/>
   <path class="fil0" d="M-0 3.1c0,0.34 0.24,0.56 0.47,0.56 0.17,0 0.29,-0.02 0.42,-0.15 0.29,-0.29 0.16,-0.89 -0.4,-0.89 -0.25,0 -0.49,0.24 -0.49,0.49z"/>
   <path class="fil0" d="M-0 5.72c0,0.34 0.24,0.56 0.47,0.56 0.17,0 0.29,-0.02 0.42,-0.15 0.29,-0.29 0.16,-0.89 -0.4,-0.89 -0.25,0 -0.49,0.24 -0.49,0.49z"/>
  </g>
 </g>
</svg>
